<mxfile host="65bd71144e">
    <diagram id="nSkOrMsmSrovDTSGtFmj" name="Concepts">
        <mxGraphModel dx="1316" dy="773" grid="1" gridSize="10" guides="1" tooltips="1" connect="1" arrows="1" fold="1" page="1" pageScale="1" pageWidth="850" pageHeight="1100" math="0" shadow="0">
            <root>
                <mxCell id="0"/>
                <mxCell id="1" parent="0"/>
                <mxCell id="18" style="edgeStyle=none;html=1;fontSize=20;entryX=0;entryY=0.25;entryDx=0;entryDy=0;entryPerimeter=0;" parent="1" source="12" target="17" edge="1">
                    <mxGeometry relative="1" as="geometry">
                        <mxPoint x="265" y="350" as="targetPoint"/>
                    </mxGeometry>
                </mxCell>
                <mxCell id="12" value="&lt;font style=&quot;font-size: 20px;&quot;&gt;Player&lt;/font&gt;" style="swimlane;fontStyle=0;childLayout=stackLayout;horizontal=1;startSize=40;horizontalStack=0;resizeParent=1;resizeParentMax=0;resizeLast=0;collapsible=1;marginBottom=0;whiteSpace=wrap;html=1;strokeWidth=1;fontSize=12;" parent="1" vertex="1">
                    <mxGeometry x="45" y="150" width="160" height="120" as="geometry"/>
                </mxCell>
                <mxCell id="13" value="&lt;div&gt;- Every play-through is the human player possessing an in-game vessel to go through the journey&lt;/div&gt;" style="text;strokeColor=none;fillColor=none;align=left;verticalAlign=middle;spacingLeft=4;spacingRight=4;overflow=hidden;points=[[0,0.5],[1,0.5]];portConstraint=eastwest;rotatable=0;whiteSpace=wrap;html=1;strokeWidth=1;fontSize=12;" parent="12" vertex="1">
                    <mxGeometry y="40" width="160" height="80" as="geometry"/>
                </mxCell>
                <mxCell id="16" value="&lt;font style=&quot;font-size: 20px;&quot;&gt;Village&lt;/font&gt;" style="swimlane;fontStyle=0;childLayout=stackLayout;horizontal=1;startSize=40;horizontalStack=0;resizeParent=1;resizeParentMax=0;resizeLast=0;collapsible=1;marginBottom=0;whiteSpace=wrap;html=1;strokeWidth=1;fontSize=12;" parent="1" vertex="1">
                    <mxGeometry x="185" y="280" width="160" height="250" as="geometry"/>
                </mxCell>
                <mxCell id="17" value="&lt;div&gt;- The villagers are accustomed to to the occasional appearance and departure of vessels in the village.&lt;br&gt;&lt;/div&gt;" style="text;strokeColor=none;fillColor=none;align=left;verticalAlign=middle;spacingLeft=4;spacingRight=4;overflow=hidden;points=[[0,0.5],[1,0.5]];portConstraint=eastwest;rotatable=0;whiteSpace=wrap;html=1;strokeWidth=1;fontSize=12;" parent="16" vertex="1">
                    <mxGeometry y="40" width="160" height="90" as="geometry"/>
                </mxCell>
                <mxCell id="20" value="&lt;div&gt;- Obelisk in the center, works as a sun clock&lt;br&gt;&lt;/div&gt;" style="text;strokeColor=none;fillColor=none;align=left;verticalAlign=middle;spacingLeft=4;spacingRight=4;overflow=hidden;points=[[0,0.5],[1,0.5]];portConstraint=eastwest;rotatable=0;whiteSpace=wrap;html=1;strokeWidth=1;fontSize=12;" parent="16" vertex="1">
                    <mxGeometry y="130" width="160" height="40" as="geometry"/>
                </mxCell>
                <mxCell id="22" value="&lt;div&gt;&lt;span style=&quot;background-color: initial;&quot;&gt;- The village is surrounded by a great wall that separates it from the outerskirts. &lt;font color=&quot;#ffff99&quot;&gt;[why?]&lt;/font&gt;&lt;/span&gt;&lt;br&gt;&lt;/div&gt;" style="text;strokeColor=none;fillColor=none;align=left;verticalAlign=middle;spacingLeft=4;spacingRight=4;overflow=hidden;points=[[0,0.5],[1,0.5]];portConstraint=eastwest;rotatable=0;whiteSpace=wrap;html=1;strokeWidth=1;fontSize=12;" parent="16" vertex="1">
                    <mxGeometry y="170" width="160" height="80" as="geometry"/>
                </mxCell>
                <mxCell id="28" style="edgeStyle=none;html=1;entryX=0.997;entryY=0.099;entryDx=0;entryDy=0;entryPerimeter=0;fontSize=20;" parent="1" source="23" target="16" edge="1">
                    <mxGeometry relative="1" as="geometry"/>
                </mxCell>
                <mxCell id="23" value="&lt;font style=&quot;font-size: 20px;&quot;&gt;Witch&lt;/font&gt;" style="swimlane;fontStyle=0;childLayout=stackLayout;horizontal=1;startSize=40;horizontalStack=0;resizeParent=1;resizeParentMax=0;resizeLast=0;collapsible=1;marginBottom=0;whiteSpace=wrap;html=1;strokeWidth=1;fontSize=12;" parent="1" vertex="1">
                    <mxGeometry x="330" y="100" width="160" height="110" as="geometry"/>
                </mxCell>
                <mxCell id="24" value="&lt;div&gt;- Secluded villager, has studied the magic of the candles.&lt;br&gt;&lt;/div&gt;" style="text;strokeColor=none;fillColor=none;align=left;verticalAlign=middle;spacingLeft=4;spacingRight=4;overflow=hidden;points=[[0,0.5],[1,0.5]];portConstraint=eastwest;rotatable=0;whiteSpace=wrap;html=1;strokeWidth=1;fontSize=12;" parent="23" vertex="1">
                    <mxGeometry y="40" width="160" height="70" as="geometry"/>
                </mxCell>
                <mxCell id="33" style="edgeStyle=none;html=1;fontSize=20;fontColor=#FFFF99;" parent="1" source="30" target="24" edge="1">
                    <mxGeometry relative="1" as="geometry"/>
                </mxCell>
                <mxCell id="30" value="&lt;font style=&quot;font-size: 20px;&quot;&gt;Candles&lt;/font&gt;" style="swimlane;fontStyle=0;childLayout=stackLayout;horizontal=1;startSize=40;horizontalStack=0;resizeParent=1;resizeParentMax=0;resizeLast=0;collapsible=1;marginBottom=0;whiteSpace=wrap;html=1;strokeWidth=1;fontSize=12;" parent="1" vertex="1">
                    <mxGeometry x="550" y="60" width="160" height="160" as="geometry"/>
                </mxCell>
                <mxCell id="31" value="&lt;div&gt;- Candles are objects used for magical rituals.&lt;br&gt;&lt;/div&gt;" style="text;strokeColor=none;fillColor=none;align=left;verticalAlign=middle;spacingLeft=4;spacingRight=4;overflow=hidden;points=[[0,0.5],[1,0.5]];portConstraint=eastwest;rotatable=0;whiteSpace=wrap;html=1;strokeWidth=1;fontSize=12;" parent="30" vertex="1">
                    <mxGeometry y="40" width="160" height="50" as="geometry"/>
                </mxCell>
                <mxCell id="32" value="&lt;div&gt;&lt;span style=&quot;background-color: initial;&quot;&gt;- Its magical habilities come from its body, made from a mixture of wax and additives.&lt;/span&gt;&lt;br&gt;&lt;/div&gt;" style="text;strokeColor=none;fillColor=none;align=left;verticalAlign=middle;spacingLeft=4;spacingRight=4;overflow=hidden;points=[[0,0.5],[1,0.5]];portConstraint=eastwest;rotatable=0;whiteSpace=wrap;html=1;strokeWidth=1;fontSize=12;" parent="30" vertex="1">
                    <mxGeometry y="90" width="160" height="70" as="geometry"/>
                </mxCell>
                <mxCell id="34" value="&lt;font style=&quot;font-size: 20px;&quot;&gt;Outskirts&lt;/font&gt;" style="swimlane;fontStyle=0;childLayout=stackLayout;horizontal=1;startSize=40;horizontalStack=0;resizeParent=1;resizeParentMax=0;resizeLast=0;collapsible=1;marginBottom=0;whiteSpace=wrap;html=1;strokeWidth=1;fontSize=12;" parent="1" vertex="1">
                    <mxGeometry x="90" y="590" width="160" height="130" as="geometry"/>
                </mxCell>
                <mxCell id="35" value="&lt;div&gt;- Areas outside of the village.&lt;/div&gt;" style="text;strokeColor=none;fillColor=none;align=left;verticalAlign=middle;spacingLeft=4;spacingRight=4;overflow=hidden;points=[[0,0.5],[1,0.5]];portConstraint=eastwest;rotatable=0;whiteSpace=wrap;html=1;strokeWidth=1;fontSize=12;" parent="34" vertex="1">
                    <mxGeometry y="40" width="160" height="50" as="geometry"/>
                </mxCell>
                <mxCell id="36" value="&lt;div&gt;&lt;span style=&quot;background-color: initial;&quot;&gt;- Lacks NPCs&lt;/span&gt;&lt;br&gt;&lt;/div&gt;" style="text;strokeColor=none;fillColor=none;align=left;verticalAlign=middle;spacingLeft=4;spacingRight=4;overflow=hidden;points=[[0,0.5],[1,0.5]];portConstraint=eastwest;rotatable=0;whiteSpace=wrap;html=1;strokeWidth=1;fontSize=12;" parent="34" vertex="1">
                    <mxGeometry y="90" width="160" height="40" as="geometry"/>
                </mxCell>
                <mxCell id="37" style="edgeStyle=none;html=1;entryX=0.5;entryY=0;entryDx=0;entryDy=0;fontFamily=Helvetica;fontSize=12;fontColor=default;startSize=40;" parent="1" source="22" target="34" edge="1">
                    <mxGeometry relative="1" as="geometry"/>
                </mxCell>
                <mxCell id="42" style="edgeStyle=none;html=1;entryX=1;entryY=0.5;entryDx=0;entryDy=0;fontFamily=Helvetica;fontSize=12;fontColor=#FFFF99;startSize=40;" parent="1" source="38" target="35" edge="1">
                    <mxGeometry relative="1" as="geometry"/>
                </mxCell>
                <mxCell id="38" value="&lt;font style=&quot;font-size: 20px;&quot;&gt;Mountain Caves&lt;/font&gt;" style="swimlane;fontStyle=0;childLayout=stackLayout;horizontal=1;startSize=40;horizontalStack=0;resizeParent=1;resizeParentMax=0;resizeLast=0;collapsible=1;marginBottom=0;whiteSpace=wrap;html=1;strokeWidth=1;fontSize=12;" parent="1" vertex="1">
                    <mxGeometry x="380" y="460" width="160" height="220" as="geometry"/>
                </mxCell>
                <mxCell id="39" value="&lt;div&gt;- Spring of a river that runs to the forest.&lt;/div&gt;" style="text;strokeColor=none;fillColor=none;align=left;verticalAlign=middle;spacingLeft=4;spacingRight=4;overflow=hidden;points=[[0,0.5],[1,0.5]];portConstraint=eastwest;rotatable=0;whiteSpace=wrap;html=1;strokeWidth=1;fontSize=12;" parent="38" vertex="1">
                    <mxGeometry y="40" width="160" height="50" as="geometry"/>
                </mxCell>
                <mxCell id="40" value="&lt;div&gt;&lt;div&gt;- Contains fungus and ores inside.&lt;/div&gt;&lt;/div&gt;" style="text;strokeColor=none;fillColor=none;align=left;verticalAlign=middle;spacingLeft=4;spacingRight=4;overflow=hidden;points=[[0,0.5],[1,0.5]];portConstraint=eastwest;rotatable=0;whiteSpace=wrap;html=1;strokeWidth=1;fontSize=12;" parent="38" vertex="1">
                    <mxGeometry y="90" width="160" height="40" as="geometry"/>
                </mxCell>
                <mxCell id="41" value="&lt;div&gt;- A small acessible cave houses a body of water that blocks passage to the internal caves. &lt;font color=&quot;#ffff99&quot;&gt;[Passing thrugh should be a puzzle]&lt;/font&gt;&lt;br&gt;&lt;/div&gt;" style="text;strokeColor=none;fillColor=none;align=left;verticalAlign=middle;spacingLeft=4;spacingRight=4;overflow=hidden;points=[[0,0.5],[1,0.5]];portConstraint=eastwest;rotatable=0;whiteSpace=wrap;html=1;strokeWidth=1;fontSize=12;" parent="38" vertex="1">
                    <mxGeometry y="130" width="160" height="90" as="geometry"/>
                </mxCell>
                <mxCell id="47" style="edgeStyle=none;html=1;entryX=1;entryY=0.5;entryDx=0;entryDy=0;fontFamily=Helvetica;fontSize=12;fontColor=default;startSize=40;" parent="1" source="43" target="35" edge="1">
                    <mxGeometry relative="1" as="geometry"/>
                </mxCell>
                <mxCell id="43" value="&lt;font style=&quot;font-size: 20px;&quot;&gt;Deep Forest&lt;/font&gt;" style="swimlane;fontStyle=0;childLayout=stackLayout;horizontal=1;startSize=40;horizontalStack=0;resizeParent=1;resizeParentMax=0;resizeLast=0;collapsible=1;marginBottom=0;whiteSpace=wrap;html=1;strokeWidth=1;fontSize=12;" parent="1" vertex="1">
                    <mxGeometry x="460" y="740" width="160" height="140" as="geometry"/>
                </mxCell>
                <mxCell id="44" value="&lt;div&gt;- Cut by a river that ends in a lake at the center.&lt;/div&gt;" style="text;strokeColor=none;fillColor=none;align=left;verticalAlign=middle;spacingLeft=4;spacingRight=4;overflow=hidden;points=[[0,0.5],[1,0.5]];portConstraint=eastwest;rotatable=0;whiteSpace=wrap;html=1;strokeWidth=1;fontSize=12;" parent="43" vertex="1">
                    <mxGeometry y="40" width="160" height="50" as="geometry"/>
                </mxCell>
                <mxCell id="51" value="&lt;div&gt;- Hidden within it is the garden.&lt;/div&gt;" style="text;strokeColor=none;fillColor=none;align=left;verticalAlign=middle;spacingLeft=4;spacingRight=4;overflow=hidden;points=[[0,0.5],[1,0.5]];portConstraint=eastwest;rotatable=0;whiteSpace=wrap;html=1;strokeWidth=1;fontSize=12;" parent="43" vertex="1">
                    <mxGeometry y="90" width="160" height="50" as="geometry"/>
                </mxCell>
                <mxCell id="50" style="edgeStyle=none;html=1;entryX=0;entryY=0.5;entryDx=0;entryDy=0;fontFamily=Helvetica;fontSize=12;fontColor=default;startSize=40;" parent="1" source="48" target="51" edge="1">
                    <mxGeometry relative="1" as="geometry"/>
                </mxCell>
                <mxCell id="48" value="&lt;font style=&quot;font-size: 20px;&quot;&gt;Garden&lt;/font&gt;" style="swimlane;fontStyle=0;childLayout=stackLayout;horizontal=1;startSize=40;horizontalStack=0;resizeParent=1;resizeParentMax=0;resizeLast=0;collapsible=1;marginBottom=0;whiteSpace=wrap;html=1;strokeWidth=1;fontSize=12;" parent="1" vertex="1">
                    <mxGeometry x="170" y="890" width="160" height="130" as="geometry"/>
                </mxCell>
                <mxCell id="49" value="&lt;div&gt;- A place of flowers and other plants. &lt;font color=&quot;#ffff99&quot;&gt;[Finding a right resources here should be a puzzle. Based around botany?]&lt;/font&gt;&lt;/div&gt;" style="text;strokeColor=none;fillColor=none;align=left;verticalAlign=middle;spacingLeft=4;spacingRight=4;overflow=hidden;points=[[0,0.5],[1,0.5]];portConstraint=eastwest;rotatable=0;whiteSpace=wrap;html=1;strokeWidth=1;fontSize=12;" parent="48" vertex="1">
                    <mxGeometry y="40" width="160" height="90" as="geometry"/>
                </mxCell>
                <mxCell id="55" style="edgeStyle=none;html=1;entryX=0.5;entryY=0;entryDx=0;entryDy=0;fontFamily=Helvetica;fontSize=12;fontColor=#FFFF99;startSize=40;exitX=1;exitY=0.5;exitDx=0;exitDy=0;" parent="1" source="39" target="43" edge="1">
                    <mxGeometry relative="1" as="geometry">
                        <mxPoint x="635" y="480" as="sourcePoint"/>
                    </mxGeometry>
                </mxCell>
                <mxCell id="58" style="edgeStyle=none;html=1;entryX=1;entryY=0.5;entryDx=0;entryDy=0;" parent="1" source="56" target="17" edge="1">
                    <mxGeometry relative="1" as="geometry"/>
                </mxCell>
                <mxCell id="56" value="&lt;font style=&quot;font-size: 20px;&quot;&gt;Painter&lt;/font&gt;" style="swimlane;fontStyle=0;childLayout=stackLayout;horizontal=1;startSize=40;horizontalStack=0;resizeParent=1;resizeParentMax=0;resizeLast=0;collapsible=1;marginBottom=0;whiteSpace=wrap;html=1;strokeWidth=1;fontSize=12;" parent="1" vertex="1">
                    <mxGeometry x="400" y="240" width="160" height="160" as="geometry"/>
                </mxCell>
                <mxCell id="57" value="&lt;div&gt;- Villager.&lt;/div&gt;" style="text;strokeColor=none;fillColor=none;align=left;verticalAlign=middle;spacingLeft=4;spacingRight=4;overflow=hidden;points=[[0,0.5],[1,0.5]];portConstraint=eastwest;rotatable=0;whiteSpace=wrap;html=1;strokeWidth=1;fontSize=12;" parent="56" vertex="1">
                    <mxGeometry y="40" width="160" height="30" as="geometry"/>
                </mxCell>
                <mxCell id="59" value="&lt;div&gt;&lt;/div&gt;- Makes a painting for each player and keeps them on a locked room under the startin&amp;nbsp;&lt;font color=&quot;#ffff99&quot;&gt;[Key to the room can be found in painter's house]&lt;/font&gt;&lt;span style=&quot;color: rgb(255, 255, 153);&quot;&gt;&lt;br&gt;&lt;/span&gt;" style="text;strokeColor=none;fillColor=none;align=left;verticalAlign=middle;spacingLeft=4;spacingRight=4;overflow=hidden;points=[[0,0.5],[1,0.5]];portConstraint=eastwest;rotatable=0;whiteSpace=wrap;html=1;strokeWidth=1;fontSize=12;" parent="56" vertex="1">
                    <mxGeometry y="70" width="160" height="90" as="geometry"/>
                </mxCell>
            </root>
        </mxGraphModel>
    </diagram>
    <diagram id="IBVqv6Lt9xaawn-ESVcS" name="Village Map">
        <mxGraphModel dx="1548" dy="909" grid="1" gridSize="10" guides="1" tooltips="1" connect="1" arrows="1" fold="1" page="1" pageScale="1" pageWidth="850" pageHeight="1100" math="0" shadow="0">
            <root>
                <mxCell id="0"/>
                <mxCell id="1" parent="0"/>
                <mxCell id="6yBbqaEI6kufKxSQCS8f-4" style="edgeStyle=none;html=1;fontSize=26;" parent="1" source="6yBbqaEI6kufKxSQCS8f-1" target="6yBbqaEI6kufKxSQCS8f-3" edge="1">
                    <mxGeometry relative="1" as="geometry"/>
                </mxCell>
                <mxCell id="6yBbqaEI6kufKxSQCS8f-1" value="&lt;font style=&quot;font-size: 14px;&quot;&gt;Obelisk&lt;/font&gt;" style="swimlane;fontStyle=0;childLayout=stackLayout;horizontal=1;startSize=40;horizontalStack=0;resizeParent=1;resizeParentMax=0;resizeLast=0;collapsible=1;marginBottom=0;whiteSpace=wrap;html=1;strokeWidth=1;fontSize=12;" parent="1" vertex="1" collapsed="1">
                    <mxGeometry x="190" y="390" width="80" height="30" as="geometry">
                        <mxRectangle x="190" y="390" width="110" height="90" as="alternateBounds"/>
                    </mxGeometry>
                </mxCell>
                <mxCell id="6yBbqaEI6kufKxSQCS8f-2" value="&lt;div&gt;&lt;font style=&quot;font-size: 10px;&quot;&gt;- Can be used to check current time of day.&lt;/font&gt;&lt;/div&gt;" style="text;strokeColor=none;fillColor=none;align=left;verticalAlign=middle;spacingLeft=4;spacingRight=4;overflow=hidden;points=[[0,0.5],[1,0.5]];portConstraint=eastwest;rotatable=0;whiteSpace=wrap;html=1;strokeWidth=1;fontSize=12;" parent="6yBbqaEI6kufKxSQCS8f-1" vertex="1">
                    <mxGeometry y="40" width="110" height="50" as="geometry"/>
                </mxCell>
                <mxCell id="6yBbqaEI6kufKxSQCS8f-3" value="&lt;font style=&quot;font-size: 26px;&quot;&gt;Town Center&lt;/font&gt;" style="rounded=0;whiteSpace=wrap;html=1;fontSize=10;" parent="1" vertex="1">
                    <mxGeometry x="320" y="385" width="160" height="80" as="geometry"/>
                </mxCell>
                <mxCell id="i5fd37nhok8e-JsA40is-9" style="edgeStyle=none;html=1;fontSize=8;" parent="1" source="i5fd37nhok8e-JsA40is-1" target="i5fd37nhok8e-JsA40is-6" edge="1">
                    <mxGeometry relative="1" as="geometry">
                        <mxPoint x="400" y="670" as="targetPoint"/>
                    </mxGeometry>
                </mxCell>
                <mxCell id="i5fd37nhok8e-JsA40is-1" value="&lt;font style=&quot;font-size: 10px;&quot;&gt;Lantern&lt;/font&gt;" style="swimlane;fontStyle=0;childLayout=stackLayout;horizontal=1;startSize=25;horizontalStack=0;resizeParent=1;resizeParentMax=0;resizeLast=0;collapsible=1;marginBottom=0;whiteSpace=wrap;html=1;strokeWidth=1;fontSize=12;" parent="1" vertex="1" collapsed="1">
                    <mxGeometry x="460" y="680" width="70" height="20" as="geometry">
                        <mxRectangle x="460" y="680" width="70" height="85" as="alternateBounds"/>
                    </mxGeometry>
                </mxCell>
                <mxCell id="i5fd37nhok8e-JsA40is-2" value="&lt;div&gt;&lt;font style=&quot;font-size: 8px;&quot;&gt;- Item, lightsource.&lt;/font&gt;&lt;/div&gt;" style="text;strokeColor=none;fillColor=none;align=left;verticalAlign=middle;spacingLeft=4;spacingRight=4;overflow=hidden;points=[[0,0.5],[1,0.5]];portConstraint=eastwest;rotatable=0;whiteSpace=wrap;html=1;strokeWidth=1;fontSize=12;" parent="i5fd37nhok8e-JsA40is-1" vertex="1">
                    <mxGeometry y="25" width="70" height="20" as="geometry"/>
                </mxCell>
                <mxCell id="i5fd37nhok8e-JsA40is-8" value="&lt;div&gt;&lt;font style=&quot;font-size: 8px;&quot;&gt;- Accessible via secret.&lt;/font&gt;&lt;/div&gt;" style="text;strokeColor=none;fillColor=none;align=left;verticalAlign=middle;spacingLeft=4;spacingRight=4;overflow=hidden;points=[[0,0.5],[1,0.5]];portConstraint=eastwest;rotatable=0;whiteSpace=wrap;html=1;strokeWidth=1;fontSize=12;" parent="i5fd37nhok8e-JsA40is-1" vertex="1">
                    <mxGeometry y="45" width="70" height="40" as="geometry"/>
                </mxCell>
                <mxCell id="i5fd37nhok8e-JsA40is-5" style="edgeStyle=none;html=1;entryX=0.5;entryY=1;entryDx=0;entryDy=0;fontSize=16;" parent="1" source="i5fd37nhok8e-JsA40is-3" target="6yBbqaEI6kufKxSQCS8f-3" edge="1">
                    <mxGeometry relative="1" as="geometry"/>
                </mxCell>
                <mxCell id="i5fd37nhok8e-JsA40is-3" value="&lt;font style=&quot;&quot;&gt;&lt;font style=&quot;font-size: 14px;&quot;&gt;Cabin Path&lt;/font&gt;&lt;br&gt;&lt;/font&gt;" style="rounded=0;whiteSpace=wrap;html=1;fontSize=10;" parent="1" vertex="1">
                    <mxGeometry x="360" y="525" width="80" height="40" as="geometry"/>
                </mxCell>
                <mxCell id="i5fd37nhok8e-JsA40is-7" style="edgeStyle=none;html=1;entryX=0.5;entryY=1;entryDx=0;entryDy=0;fontSize=16;" parent="1" source="i5fd37nhok8e-JsA40is-6" target="i5fd37nhok8e-JsA40is-3" edge="1">
                    <mxGeometry relative="1" as="geometry"/>
                </mxCell>
                <mxCell id="lsOmqr-MvukBGV4bRiWr-3" style="edgeStyle=none;html=1;fontColor=#FFFF99;" edge="1" parent="1" source="i5fd37nhok8e-JsA40is-6" target="lsOmqr-MvukBGV4bRiWr-2">
                    <mxGeometry relative="1" as="geometry"/>
                </mxCell>
                <mxCell id="lsOmqr-MvukBGV4bRiWr-4" value="Secret" style="edgeLabel;html=1;align=center;verticalAlign=middle;resizable=0;points=[];fontColor=#FFFF99;" vertex="1" connectable="0" parent="lsOmqr-MvukBGV4bRiWr-3">
                    <mxGeometry x="-0.1556" relative="1" as="geometry">
                        <mxPoint as="offset"/>
                    </mxGeometry>
                </mxCell>
                <mxCell id="i5fd37nhok8e-JsA40is-6" value="&lt;font style=&quot;&quot;&gt;&lt;font style=&quot;font-size: 14px;&quot;&gt;Cabin&lt;/font&gt;&lt;br&gt;&lt;/font&gt;" style="rounded=0;whiteSpace=wrap;html=1;fontSize=10;" parent="1" vertex="1">
                    <mxGeometry x="370" y="625" width="60" height="40" as="geometry"/>
                </mxCell>
                <mxCell id="H0o3HK5nVE5YvoAAeIgO-3" value="&lt;font style=&quot;&quot;&gt;&lt;font style=&quot;font-size: 14px;&quot;&gt;Witch's Abode&lt;/font&gt;&lt;br&gt;&lt;/font&gt;" style="rounded=0;whiteSpace=wrap;html=1;fontSize=10;" parent="1" vertex="1">
                    <mxGeometry x="570" y="280" width="60" height="50" as="geometry"/>
                </mxCell>
                <mxCell id="lsOmqr-MvukBGV4bRiWr-1" value="&lt;font style=&quot;&quot;&gt;&lt;font style=&quot;font-size: 14px;&quot;&gt;Painter's House&lt;/font&gt;&lt;br&gt;&lt;/font&gt;" style="rounded=0;whiteSpace=wrap;html=1;fontSize=10;" vertex="1" parent="1">
                    <mxGeometry x="360" y="150" width="80" height="50" as="geometry"/>
                </mxCell>
                <mxCell id="lsOmqr-MvukBGV4bRiWr-2" value="&lt;font style=&quot;&quot;&gt;&lt;font style=&quot;font-size: 14px;&quot;&gt;Secret Paintings&lt;/font&gt;&lt;br&gt;&lt;/font&gt;" style="rounded=0;whiteSpace=wrap;html=1;fontSize=10;" vertex="1" parent="1">
                    <mxGeometry x="360" y="740" width="80" height="50" as="geometry"/>
                </mxCell>
            </root>
        </mxGraphModel>
    </diagram>
    <diagram id="WGPcpcUxE6XVvfljLFN2" name="Loose Ideas">
        <mxGraphModel dx="1097" dy="644" grid="1" gridSize="10" guides="1" tooltips="1" connect="1" arrows="1" fold="1" page="1" pageScale="1" pageWidth="850" pageHeight="1100" math="0" shadow="0">
            <root>
                <mxCell id="0"/>
                <mxCell id="1" parent="0"/>
                <mxCell id="M6qxx-A_4tHepyLhET0n-1" value="&lt;span style=&quot;font-size: 20px;&quot;&gt;Word Realm&lt;/span&gt;" style="swimlane;fontStyle=0;childLayout=stackLayout;horizontal=1;startSize=40;horizontalStack=0;resizeParent=1;resizeParentMax=0;resizeLast=0;collapsible=1;marginBottom=0;whiteSpace=wrap;html=1;strokeWidth=1;fontSize=12;" parent="1" vertex="1">
                    <mxGeometry x="410" y="260" width="160" height="100" as="geometry"/>
                </mxCell>
                <mxCell id="M6qxx-A_4tHepyLhET0n-2" value="&lt;div&gt;Somewhere deeper within the game, a mixture between magic and meta&lt;/div&gt;" style="text;strokeColor=none;fillColor=none;align=left;verticalAlign=middle;spacingLeft=4;spacingRight=4;overflow=hidden;points=[[0,0.5],[1,0.5]];portConstraint=eastwest;rotatable=0;whiteSpace=wrap;html=1;strokeWidth=1;fontSize=12;" parent="M6qxx-A_4tHepyLhET0n-1" vertex="1">
                    <mxGeometry y="40" width="160" height="60" as="geometry"/>
                </mxCell>
            </root>
        </mxGraphModel>
    </diagram>
</mxfile>